# xmcd
#
# Track frame offsets:
#	150
#	16650
#	31432
#	54620
#	74637
#	104265
#	123665
#	143112
#	166830
#	191845
#	203737
#
# Disc length: 2914 seconds
#
# Revision: 2
# Processed by: cddbd v1.4PL0 Copyright (c) Steve Scherf et al.
# Submitted via: CDmax 1.9
#
DISCID=9d0b600b
DTITLE=Jason and The Scorchers - Midnight Roads and Stages Seen [CDTwo)
DYEAR=1998
DGENRE=Country
TTITLE0=Help! There's A Fire
TTITLE1=Harvest Moon
TTITLE2=If Money Talks
TTITLE3=Walkin' The Dog
TTITLE4=Both Sides Of The Line
TTITLE5=White Lies
TTITLE6=Jimmie Rodgers' Last Blue Yodel
TTITLE7=Ezekiel's Wheels/Golden Ball and Chain
TTITLE8=Going Nowhere
TTITLE9=If You've Got The Love (I've Got The Time)
TTITLE10=Still Tied
EXTD=
EXTT0=
EXTT1=
EXTT2=
EXTT3=
EXTT4=
EXTT5=
EXTT6=
EXTT7=
EXTT8=
EXTT9=
EXTT10=
PLAYORDER=
